<svg width="68" height="24" viewBox="0 0 68 24" fill="none" xmlns="http://www.w3.org/2000/svg">
<path d="M67.4659 0.219849L61.8409 21.1176H60L65.625 0.219849H67.4659Z" fill="#FBFBFB"/>
<path d="M52.2934 18.7654C51.1116 18.7654 50.0746 18.4841 49.1826 17.9216C48.2962 17.3591 47.6031 16.5722 47.1031 15.5608C46.6087 14.5494 46.3616 13.3676 46.3616 12.0154C46.3616 10.6517 46.6087 9.46138 47.1031 8.44434C47.6031 7.42729 48.2962 6.63752 49.1826 6.07502C50.0746 5.51252 51.1116 5.23127 52.2934 5.23127C53.4752 5.23127 54.5093 5.51252 55.3957 6.07502C56.2877 6.63752 56.9809 7.42729 57.4752 8.44434C57.9752 9.46138 58.2252 10.6517 58.2252 12.0154C58.2252 13.3676 57.9752 14.5494 57.4752 15.5608C56.9809 16.5722 56.2877 17.3591 55.3957 17.9216C54.5093 18.4841 53.4752 18.7654 52.2934 18.7654ZM52.2934 16.9585C53.1911 16.9585 53.9298 16.7284 54.5093 16.2682C55.0888 15.808 55.5178 15.2029 55.7962 14.4529C56.0746 13.7029 56.2138 12.8904 56.2138 12.0154C56.2138 11.1404 56.0746 10.325 55.7962 9.56934C55.5178 8.81365 55.0888 8.20286 54.5093 7.73695C53.9298 7.27104 53.1911 7.03809 52.2934 7.03809C51.3957 7.03809 50.657 7.27104 50.0775 7.73695C49.4979 8.20286 49.069 8.81365 48.7906 9.56934C48.5121 10.325 48.3729 11.1404 48.3729 12.0154C48.3729 12.8904 48.5121 13.7029 48.7906 14.4529C49.069 15.2029 49.4979 15.808 50.0775 16.2682C50.657 16.7284 51.3957 16.9585 52.2934 16.9585ZM56.282 1.03809V2.74263H48.3048V1.03809H56.282Z" fill="#FBFBFB"/>
<path d="M38.4951 18.7654C37.2337 18.7654 36.1457 18.4869 35.2309 17.9301C34.3218 17.3676 33.6201 16.5835 33.1258 15.5779C32.6371 14.5665 32.3928 13.3904 32.3928 12.0494C32.3928 10.7085 32.6371 9.52672 33.1258 8.504C33.6201 7.47559 34.3076 6.67445 35.1883 6.10059C36.0746 5.52104 37.1087 5.23127 38.2906 5.23127C38.9724 5.23127 39.6457 5.3449 40.3104 5.57218C40.9752 5.79945 41.5803 6.16877 42.1258 6.68013C42.6712 7.18581 43.1059 7.85627 43.4298 8.6915C43.7536 9.52672 43.9156 10.5551 43.9156 11.7767V12.629H33.8246V10.8904H41.8701C41.8701 10.1517 41.7224 9.49263 41.4269 8.91309C41.1371 8.33354 40.7224 7.87615 40.1826 7.54093C39.6485 7.2057 39.0178 7.03809 38.2906 7.03809C37.4894 7.03809 36.7962 7.23695 36.211 7.63468C35.6315 8.02672 35.1854 8.53809 34.8729 9.16877C34.5604 9.79945 34.4042 10.4756 34.4042 11.1972V12.3563C34.4042 13.3449 34.5746 14.183 34.9156 14.8705C35.2621 15.5523 35.7423 16.0722 36.3559 16.4301C36.9695 16.7824 37.6826 16.9585 38.4951 16.9585C39.0235 16.9585 39.5008 16.8847 39.9269 16.737C40.3587 16.5835 40.7309 16.3563 41.0434 16.0551C41.3559 15.7483 41.5974 15.3676 41.7678 14.9131L43.711 15.4585C43.5065 16.1176 43.1627 16.6972 42.6798 17.1972C42.1968 17.6915 41.6002 18.0779 40.89 18.3563C40.1798 18.629 39.3815 18.7654 38.4951 18.7654ZM42.1769 1.03809V2.74263H34.1996V1.03809H42.1769Z" fill="#FBFBFB"/>
<path d="M24.4756 18.4924V5.40145H26.4188V7.37872H26.5551C26.7938 6.73099 27.2256 6.20542 27.8506 5.80201C28.4756 5.3986 29.1801 5.1969 29.9642 5.1969C30.1119 5.1969 30.2966 5.19974 30.5182 5.20542C30.7398 5.21111 30.9074 5.21963 31.021 5.23099V7.27645C30.9529 7.2594 30.7966 7.23383 30.5523 7.19974C30.3137 7.15997 30.0608 7.14008 29.7938 7.14008C29.1574 7.14008 28.5892 7.27361 28.0892 7.54065C27.5949 7.80201 27.2029 8.16565 26.9131 8.63156C26.629 9.09179 26.4869 9.61735 26.4869 10.2083V18.4924H24.4756Z" fill="#FBFBFB"/>
<path d="M15.1343 23.6744C14.1627 23.6744 13.3275 23.5494 12.6286 23.2994C11.9298 23.0551 11.3474 22.7312 10.8815 22.3278C10.4212 21.9301 10.0548 21.5039 9.78203 21.0494L11.3843 19.9244C11.5661 20.163 11.7962 20.4357 12.0746 20.7426C12.3531 21.0551 12.7337 21.325 13.2167 21.5522C13.7053 21.7852 14.3445 21.9017 15.1343 21.9017C16.1911 21.9017 17.0633 21.646 17.7508 21.1346C18.4383 20.6232 18.782 19.8221 18.782 18.7312V16.0721H18.6116C18.4638 16.3107 18.2536 16.6062 17.9809 16.9585C17.7138 17.3051 17.3275 17.6147 16.8218 17.8875C16.3218 18.1545 15.6457 18.288 14.7934 18.288C13.7366 18.288 12.7877 18.038 11.9468 17.538C11.1116 17.038 10.4496 16.3107 9.96101 15.3562C9.47805 14.4017 9.23657 13.2426 9.23657 11.8789C9.23657 10.538 9.47237 9.37041 9.94396 8.37609C10.4155 7.37609 11.0718 6.60336 11.9127 6.05791C12.7536 5.50677 13.7252 5.2312 14.8275 5.2312C15.6798 5.2312 16.3559 5.37325 16.8559 5.65734C17.3616 5.93575 17.7479 6.25393 18.015 6.61188C18.2877 6.96416 18.4979 7.25393 18.6457 7.4812H18.8502V5.40166H20.7934V18.8676C20.7934 19.9926 20.5377 20.9073 20.0263 21.6119C19.5207 22.3221 18.8388 22.842 17.9809 23.1715C17.1286 23.5068 16.1798 23.6744 15.1343 23.6744ZM15.0661 16.4812C15.8729 16.4812 16.5548 16.2965 17.1116 15.9272C17.6684 15.5579 18.0917 15.0267 18.3815 14.3335C18.6712 13.6403 18.8161 12.8107 18.8161 11.8448C18.8161 10.9017 18.6741 10.0693 18.39 9.34768C18.1059 8.62609 17.6854 8.06075 17.1286 7.65166C16.5718 7.24256 15.8843 7.03802 15.0661 7.03802C14.2138 7.03802 13.5036 7.25393 12.9354 7.68575C12.3729 8.11757 11.9496 8.69711 11.6656 9.42438C11.3871 10.1517 11.2479 10.9585 11.2479 11.8448C11.2479 12.7539 11.39 13.5579 11.6741 14.2568C11.9638 14.95 12.39 15.4954 12.9525 15.8931C13.5207 16.2852 14.2252 16.4812 15.0661 16.4812Z" fill="#FBFBFB"/>
<path d="M7.46591 0.219849L1.84091 21.1176H0L5.625 0.219849H7.46591Z" fill="#FBFBFB"/>
</svg>
