<svg width="116" height="30" viewBox="0 0 116 30" fill="none" xmlns="http://www.w3.org/2000/svg">
<path d="M104.324 29.1219C103.359 29.1219 102.602 28.8414 102.054 28.2803C101.519 27.7193 101.252 26.9299 101.252 25.9122V5.5582H95.576C94.754 5.5582 94.0821 5.33639 93.5602 4.89278C93.0513 4.44916 92.7969 3.82941 92.7969 3.03351C92.7969 2.23762 93.0513 1.61786 93.5602 1.17425C94.069 0.717588 94.741 0.489258 95.576 0.489258H113.073C113.908 0.489258 114.58 0.717588 115.088 1.17425C115.597 1.61786 115.852 2.23762 115.852 3.03351C115.852 3.82941 115.591 4.44916 115.069 4.89278C114.56 5.33639 113.895 5.5582 113.073 5.5582H107.397V25.9122C107.397 26.9299 107.123 27.7193 106.575 28.2803C106.04 28.8414 105.29 29.1219 104.324 29.1219Z" fill="#FBFBFB"/>
<path d="M79.1459 29.2198C76.3407 29.2198 73.9138 28.6261 71.8654 27.4388C69.8169 26.2515 68.2317 24.5684 67.1096 22.3894C66.0006 20.2105 65.446 17.6206 65.446 14.6197C65.446 11.6188 66.0006 9.02884 67.1096 6.84992C68.2317 4.65794 69.8169 2.9683 71.8654 1.78098C73.9138 0.59366 76.3407 0 79.1459 0C81.938 0 84.3583 0.59366 86.4068 1.78098C88.4552 2.9683 90.034 4.65794 91.143 6.84992C92.2651 9.02884 92.8261 11.6188 92.8261 14.6197C92.8261 17.6206 92.2651 20.2105 91.143 22.3894C90.034 24.5684 88.4552 26.2515 86.4068 27.4388C84.3583 28.6261 81.938 29.2198 79.1459 29.2198ZM79.1459 24.0921C80.6463 24.0921 81.9511 23.7072 83.0601 22.9374C84.1692 22.1676 85.0238 21.0716 85.6239 19.6495C86.2241 18.2273 86.5242 16.5507 86.5242 14.6197C86.5242 12.6756 86.2176 10.9925 85.6044 9.57031C85.0042 8.14814 84.1496 7.05215 83.0405 6.28235C81.9446 5.51255 80.6463 5.12765 79.1459 5.12765C77.6454 5.12765 76.3407 5.51255 75.2316 6.28235C74.1226 7.05215 73.2615 8.14814 72.6482 9.57031C72.0481 10.9925 71.748 12.6756 71.748 14.6197C71.748 16.5507 72.0481 18.2273 72.6482 19.6495C73.2484 21.0716 74.103 22.1676 75.2121 22.9374C76.3341 23.7072 77.6454 24.0921 79.1459 24.0921Z" fill="#FBFBFB"/>
<path d="M58.7524 29.1217C57.7869 29.1217 57.0301 28.8412 56.4821 28.2802C55.9472 27.7191 55.6797 26.9298 55.6797 25.9121V3.30733C55.6797 2.28963 55.9472 1.50026 56.4821 0.939218C57.0301 0.378177 57.7869 0.0976562 58.7524 0.0976562C59.7179 0.0976562 60.4681 0.378177 61.0031 0.939218C61.551 1.50026 61.825 2.28963 61.825 3.30733V25.9121C61.825 26.9298 61.551 27.7191 61.0031 28.2802C60.4681 28.8412 59.7179 29.1217 58.7524 29.1217Z" fill="#FBFBFB"/>
<path d="M33.0756 29.1611C32.1101 29.1611 31.3534 28.8805 30.8054 28.3195C30.2574 27.7454 29.9834 26.956 29.9834 25.9514V3.69893C29.9834 2.68123 30.2574 1.89186 30.8054 1.33082C31.3534 0.769778 32.1101 0.489258 33.0756 0.489258H41.6674C43.8724 0.489258 45.7382 0.854587 47.2648 1.58524C48.8044 2.3159 49.9786 3.3597 50.7876 4.71664C51.5965 6.06052 52.001 7.67189 52.001 9.55072C52.001 11.2991 51.59 12.8778 50.768 14.2869C49.946 15.683 48.7717 16.7203 47.2452 17.3988L51.179 24.2095C51.453 24.6532 51.6291 25.0315 51.7074 25.3447C51.7988 25.6448 51.8444 25.9775 51.8444 26.3428C51.8444 27.1517 51.5509 27.8237 50.9637 28.3586C50.3766 28.8936 49.6394 29.1611 48.7522 29.1611C48.2564 29.1611 47.8323 29.0893 47.48 28.9458C47.1408 28.8022 46.8277 28.5609 46.5406 28.2216C46.2536 27.8824 45.9339 27.4127 45.5816 26.8125L41.002 18.4948H36.1483V25.9514C36.1483 26.956 35.8743 27.7454 35.3263 28.3195C34.7914 28.8805 34.0412 29.1611 33.0756 29.1611ZM36.1483 14.0717H41.0607C42.522 14.0717 43.6571 13.6868 44.4661 12.917C45.275 12.1341 45.6795 11.0577 45.6795 9.68772C45.6795 8.34383 45.2555 7.27394 44.4074 6.47804C43.5723 5.68215 42.4372 5.2842 41.002 5.2842H36.1483V14.0717Z" fill="#FBFBFB"/>
<path d="M13.6803 29.2198C10.849 29.2198 8.40909 28.6392 6.36064 27.478C4.32523 26.3037 2.75301 24.6206 1.64398 22.4286C0.547993 20.2236 0 17.588 0 14.5218C0 11.4948 0.547993 8.89837 1.64398 6.73249C2.73997 4.56661 4.29914 2.90306 6.3215 1.74184C8.3569 0.580612 10.7642 0 13.5433 0C15.3569 0 17.0139 0.260949 18.5143 0.782848C20.0279 1.30475 21.3261 2.01583 22.409 2.91611C23.492 3.80334 24.3009 4.81451 24.8358 5.94964C24.9924 6.28888 25.1033 6.60854 25.1686 6.90863C25.2338 7.20872 25.2664 7.50229 25.2664 7.78933C25.2664 8.58523 25.0185 9.23108 24.5227 9.72688C24.0269 10.2096 23.3811 10.451 22.5852 10.451C21.3456 10.451 20.354 9.87041 19.6103 8.70918C19.1537 7.88719 18.6253 7.20872 18.0251 6.67378C17.4379 6.13883 16.7725 5.74088 16.0288 5.47993C15.2851 5.20594 14.4631 5.06894 13.5628 5.06894C12.0493 5.06894 10.7446 5.44079 9.6486 6.1845C8.56566 6.9282 7.73715 7.99809 7.16306 9.39417C6.58897 10.7903 6.30192 12.4799 6.30192 14.4631C6.30192 16.4594 6.60854 18.1816 7.22177 19.6299C7.835 21.0782 8.69613 22.1937 9.80517 22.9766C10.9272 23.7594 12.2516 24.1509 13.7781 24.1509C15.0307 24.1509 16.1332 23.916 17.0857 23.4463C18.0512 22.9635 18.8079 22.2981 19.3559 21.45C19.9039 20.6019 20.204 19.6169 20.2562 18.4948L20.2758 18.0446H16.4398C15.7091 18.0446 15.1155 17.8489 14.6588 17.4575C14.2022 17.0661 13.9738 16.5246 13.9738 15.8331C13.9738 15.1285 14.1956 14.5805 14.6393 14.1891C15.0959 13.7977 15.6961 13.602 16.4398 13.602H23.1723C24.1509 13.602 24.9076 13.8825 25.4426 14.4435C25.9905 15.0046 26.2645 15.8005 26.2645 16.8312C26.2645 16.8965 26.2645 16.9617 26.2645 17.0269C26.2645 17.0791 26.2645 17.1378 26.2645 17.2031C26.2645 19.5777 25.7687 21.6653 24.7771 23.4659C23.7986 25.2664 22.3699 26.6755 20.491 27.6932C18.6252 28.7109 16.355 29.2198 13.6803 29.2198Z" fill="#FBFBFB"/>
</svg>
